<?xml version="1.0" encoding="utf-8"?>
<!-- Generator: Adobe Illustrator 15.1.0, SVG Export Plug-In . SVG Version: 6.00 Build 0)  -->
<!DOCTYPE svg PUBLIC "-//W3C//DTD SVG 1.1//EN" "http://www.w3.org/Graphics/SVG/1.1/DTD/svg11.dtd">
<svg version="1.1" id="Layer_1" xmlns="http://www.w3.org/2000/svg" xmlns:xlink="http://www.w3.org/1999/xlink" x="0px" y="0px"
	 width="72px" height="16px" viewBox="0 0 72 16" enable-background="new 0 0 72 16" xml:space="preserve">
<path fill="#939598" stroke="#939598" stroke-miterlimit="10" d="M63.611,0.5C67.967,0.5,71.5,3.856,71.5,8l0,0
	c0,4.144-3.533,7.5-7.889,7.5H8.388C4.032,15.5,0.5,12.144,0.5,8l0,0c0-4.144,3.533-7.5,7.888-7.5H63.611z"/>
<path fill="#FFFFFF" d="M35.992,0.792c-4.059,0-7.347,3.294-7.347,7.354c0,4.059,3.288,7.354,7.347,7.354
	c4.066,0,7.361-3.295,7.361-7.354C43.354,4.086,40.059,0.792,35.992,0.792z M36,14.029c-3.25,0-5.883-2.633-5.883-5.883
	c0-3.251,2.633-5.884,5.883-5.884s5.883,2.633,5.883,5.884C41.883,11.396,39.25,14.029,36,14.029z M38.573,7.41
	c0.61,0,1.104-0.492,1.104-1.103s-0.493-1.103-1.104-1.103s-1.103,0.493-1.103,1.103S37.963,7.41,38.573,7.41z M33.426,7.41
	c0.61,0,1.103-0.492,1.103-1.103s-0.493-1.103-1.103-1.103s-1.104,0.493-1.104,1.103S32.815,7.41,33.426,7.41z M36,9.617
	c-1.713,0-3.17,1.072-3.757,2.572h7.515C39.17,10.689,37.713,9.617,36,9.617z"/>
</svg>
