<?xml version="1.0" encoding="utf-8"?>
<!-- Generator: Adobe Illustrator 15.1.0, SVG Export Plug-In . SVG Version: 6.00 Build 0)  -->
<!DOCTYPE svg PUBLIC "-//W3C//DTD SVG 1.1//EN" "http://www.w3.org/Graphics/SVG/1.1/DTD/svg11.dtd">
<svg version="1.1" id="Layer_1" xmlns="http://www.w3.org/2000/svg" xmlns:xlink="http://www.w3.org/1999/xlink" x="0px" y="0px"
	 width="72px" height="16px" viewBox="-32 10 72 16" enable-background="new -32 10 72 16" xml:space="preserve">
<path stroke="#000000" stroke-miterlimit="10" d="M31.685,10.682c4.367,0,7.909,3.275,7.909,7.318l0,0
	c0,4.043-3.542,7.318-7.909,7.318h-55.369c-4.367,0-7.909-3.275-7.909-7.318l0,0c0-4.043,3.542-7.318,7.909-7.318H31.685z"/>
<path fill="#FFFFFF" d="M3.994,10.463c-3.986,0-7.212,3.234-7.212,7.219S0.008,24.9,3.994,24.9c3.991,0,7.225-3.234,7.225-7.219
	S7.984,10.463,3.994,10.463z M4,23.457c-3.19,0-5.775-2.584-5.775-5.775c0-3.191,2.585-5.775,5.775-5.775s5.775,2.584,5.775,5.775
	C9.775,20.873,7.19,23.457,4,23.457z M6.527,16.959c0.599,0,1.082-0.483,1.082-1.082s-0.483-1.082-1.082-1.082
	c-0.601,0-1.084,0.483-1.084,1.082S5.927,16.959,6.527,16.959z M1.474,16.959c0.599,0,1.083-0.483,1.083-1.082
	s-0.483-1.082-1.083-1.082c-0.6,0-1.083,0.483-1.083,1.082S0.874,16.959,1.474,16.959z M4,21.652c1.683,0,3.112-1.054,3.688-2.527
	H0.312C0.889,20.599,2.318,21.652,4,21.652z"/>
</svg>
