<?xml version="1.0" encoding="utf-8"?>
<!-- Generator: Adobe Illustrator 15.1.0, SVG Export Plug-In . SVG Version: 6.00 Build 0)  -->
<!DOCTYPE svg PUBLIC "-//W3C//DTD SVG 1.1//EN" "http://www.w3.org/Graphics/SVG/1.1/DTD/svg11.dtd">
<svg version="1.1" id="Layer_1" xmlns="http://www.w3.org/2000/svg" xmlns:xlink="http://www.w3.org/1999/xlink" x="0px" y="0px"
	 width="32px" height="32px" viewBox="0 0 48 48" enable-background="new 0 0 48 48" xml:space="preserve">
<circle fill="#808285" stroke="#808285" stroke-miterlimit="10" cx="24" cy="24" r="23.5"/>
<path fill="#FFFFFF" d="M24.013,2.99c-11.579,0-20.957,9.398-20.957,20.977c0,11.578,9.377,20.977,20.957,20.977
	c11.598,0,20.997-9.398,20.997-20.977C45.01,12.388,35.611,2.99,24.013,2.99z M24.033,40.748c-9.271,0-16.781-7.51-16.781-16.781
	s7.51-16.781,16.781-16.781c9.272,0,16.781,7.51,16.781,16.781S33.306,40.748,24.033,40.748z M31.376,21.869
	c1.74,0,3.146-1.405,3.146-3.146c0-1.741-1.406-3.147-3.146-3.147c-1.742,0-3.146,1.406-3.146,3.147
	C28.229,20.463,29.634,21.869,31.376,21.869z M16.692,21.869c1.74,0,3.146-1.405,3.146-3.146c0-1.741-1.406-3.147-3.146-3.147
	c-1.742,0-3.147,1.406-3.147,3.147C13.545,20.463,14.95,21.869,16.692,21.869z M24.033,28.162c-4.888,0-9.041,3.063-10.718,7.341
	h21.437C33.076,31.225,28.921,28.162,24.033,28.162z"/>
</svg>
