<?xml version="1.0" encoding="utf-8"?>
<!-- Generator: Adobe Illustrator 15.1.0, SVG Export Plug-In . SVG Version: 6.00 Build 0)  -->
<!DOCTYPE svg PUBLIC "-//W3C//DTD SVG 1.1//EN" "http://www.w3.org/Graphics/SVG/1.1/DTD/svg11.dtd">
<svg version="1.1" id="Layer_1" xmlns="http://www.w3.org/2000/svg" xmlns:xlink="http://www.w3.org/1999/xlink" x="0px" y="0px"
	 width="32px" height="32px" viewBox="0 0 48 48" enable-background="new 0 0 48 48" xml:space="preserve">
<circle stroke="#000000" stroke-miterlimit="10" cx="24" cy="24" r="23.5"/>
<path fill="#FFFFFF" d="M23.98,3C12.388,3,3,12.408,3,24c0,11.591,9.387,21,20.98,21C35.591,45,45,35.591,45,24
	C45,12.408,35.591,3,23.98,3z M24,40.8c-9.281,0-16.8-7.519-16.8-16.8S14.719,7.2,24,7.2C33.282,7.2,40.8,14.719,40.8,24
	S33.282,40.8,24,40.8z M31.351,21.9c1.744,0,3.149-1.406,3.149-3.15c0-1.743-1.405-3.15-3.149-3.15c-1.743,0-3.15,1.407-3.15,3.15
	C28.2,20.494,29.607,21.9,31.351,21.9z M16.65,21.9c1.743,0,3.15-1.406,3.15-3.15c0-1.743-1.408-3.15-3.15-3.15
	s-3.15,1.407-3.15,3.15C13.5,20.494,14.908,21.9,16.65,21.9z M24,35.55c4.893,0,9.051-3.065,10.73-7.35H13.27
	C14.95,32.484,19.107,35.55,24,35.55z"/>
</svg>
